<svg width="662" height="662" viewBox="0 0 662 662" fill="none" xmlns="http://www.w3.org/2000/svg">
<path d="M509.939 121.596C495.255 90.5616 480.811 61.5925 435.119 56.4553C399.305 52.4833 358.235 52.2318 325.399 69.3511C296.88 84.2329 285.984 118.114 258.299 133.843C236.625 146.143 209.907 143.111 185.122 140.543C133.949 135.247 84.736 154.67 57.872 200.745C35.364 239.353 35.7348 290.247 58.8386 328.498C68.0006 343.684 80.2874 356.752 89.9526 371.62C99.6178 386.489 106.714 404.244 103.629 421.707C100.981 436.337 91.7135 448.757 85.8879 462.42C70.3176 498.896 82.4984 544.654 112.858 570.154C134.174 588.055 162.15 596.091 189.769 599.56C233.461 605.042 277.961 600.182 320.845 590.292C346.583 584.387 372.653 576.615 398.961 579.422C421.27 581.819 441.978 591.669 463.056 599.388C487.867 608.457 514.281 614.72 540.589 612.284C573.001 609.292 602.817 591.802 615.898 561.032C631.045 525.39 619.87 484.677 609.186 447.433C597.852 407.713 591.365 370.177 608.047 331.093C622.161 297.993 646.946 256.419 617.103 224.365C597.932 203.777 569.677 197.276 548.586 179.574C529.494 163.58 519.657 142.131 509.939 121.596Z" fill="#92E3A9"/>
<path opacity="0.7" d="M509.939 121.596C495.255 90.5616 480.811 61.5925 435.119 56.4553C399.305 52.4833 358.235 52.2318 325.399 69.3511C296.88 84.2329 285.984 118.114 258.299 133.843C236.625 146.143 209.907 143.111 185.122 140.543C133.949 135.247 84.736 154.67 57.872 200.745C35.364 239.353 35.7348 290.247 58.8386 328.498C68.0006 343.684 80.2874 356.752 89.9526 371.62C99.6178 386.489 106.714 404.244 103.629 421.707C100.981 436.337 91.7135 448.757 85.8879 462.42C70.3176 498.896 82.4984 544.654 112.858 570.154C134.174 588.055 162.15 596.091 189.769 599.56C233.461 605.042 277.961 600.182 320.845 590.292C346.583 584.387 372.653 576.615 398.961 579.422C421.27 581.819 441.978 591.669 463.056 599.388C487.867 608.457 514.281 614.72 540.589 612.284C573.001 609.292 602.817 591.802 615.898 561.032C631.045 525.39 619.87 484.677 609.186 447.433C597.852 407.713 591.365 370.177 608.047 331.093C622.161 297.993 646.946 256.419 617.103 224.365C597.932 203.777 569.677 197.276 548.586 179.574C529.494 163.58 519.657 142.131 509.939 121.596Z" fill="white"/>
<path d="M298.827 111.904C298.827 111.904 290.737 101.498 286.792 101.445C282.846 101.392 279.126 109.654 276.359 109.217C273.591 108.78 270.586 99.3 263.476 101.538C256.366 103.775 254.605 114.778 249.879 114.38C245.152 113.983 222.286 73.6409 222.286 73.6409L205.816 83.2134C205.816 83.2134 230.455 122.51 228.324 126.76C226.192 131.01 215.931 126.68 210.238 131.539C204.545 136.398 211.032 143.998 209.947 146.567C208.861 149.135 201.751 147.785 199.725 151.174C197.7 154.564 200.361 167.062 200.361 167.062L246.516 131.738L298.827 111.904Z" fill="white" stroke="#263238" stroke-miterlimit="10"/>
<path d="M190.656 63.8035L186.313 83.412L191.437 93.1434L204.253 86.4042C204.253 86.4042 197.686 78.4602 190.656 63.8035Z" fill="#92E3A9" stroke="#263238" stroke-miterlimit="10"/>
<path d="M212.859 52.0994L231.395 59.6197L236.519 69.3511L223.756 76.1035C223.756 76.1035 220.949 66.2 212.859 52.0994Z" fill="#92E3A9" stroke="#263238" stroke-miterlimit="10"/>
<path d="M186.684 29.6576C186.684 29.6576 176.185 60.1096 204.24 86.3513L224.948 75.468C224.948 75.468 219.863 40.3158 186.684 29.6576Z" fill="white" stroke="#263238" stroke-miterlimit="10"/>
<path d="M197.276 78.6985C199.423 81.4232 201.773 83.9815 204.306 86.3512L224.948 75.468C224.37 72.084 223.484 68.7601 222.3 65.538L197.276 78.6985Z" fill="#92E3A9" stroke="#263238" stroke-miterlimit="10"/>
<path d="M207.118 55.0201C208.378 50.7108 205.906 46.196 201.597 44.9358C197.288 43.6757 192.773 46.1475 191.513 50.4568C190.252 54.7661 192.724 59.2809 197.034 60.541C201.343 61.8012 205.858 59.3293 207.118 55.0201Z" fill="#92E3A9" stroke="#263238" stroke-miterlimit="10"/>
<path d="M203.896 50.312C203.424 49.4217 202.699 48.6912 201.813 48.2127C200.926 47.7342 199.918 47.5291 198.914 47.6235C197.911 47.7178 196.959 48.1072 196.177 48.7426C195.395 49.3781 194.819 50.2309 194.522 51.1935C194.224 52.1561 194.219 53.1852 194.506 54.151C194.793 55.1167 195.36 55.9757 196.135 56.6195C196.91 57.2633 197.858 57.6629 198.86 57.7681C199.862 57.8732 200.873 57.679 201.764 57.21C202.358 56.8979 202.884 56.4716 203.313 55.9556C203.741 55.4397 204.064 54.8443 204.262 54.2035C204.46 53.5626 204.53 52.889 204.467 52.2213C204.404 51.5535 204.21 50.9047 203.896 50.312Z" fill="white" stroke="#263238" stroke-miterlimit="10"/>
<path d="M590.729 275.379L579.912 282.886L579.978 296.046L569.492 288.089L556.994 292.22L561.323 279.788L553.538 269.169L566.699 269.447L574.391 258.763L578.191 271.367L590.729 275.379Z" fill="white" stroke="#263238" stroke-miterlimit="10"/>
<path d="M85.4775 328.193L82.8824 337.21L88.8404 344.465L79.4533 344.783L74.3956 352.687L71.1915 343.856L62.1089 341.499L69.5233 335.727L68.9672 326.353L76.7391 331.609L85.4775 328.193Z" fill="white" stroke="#263238" stroke-miterlimit="10"/>
<path d="M237.473 444.771L234.878 453.788L240.836 461.043L231.448 461.361L226.391 469.265L223.2 460.447L214.117 458.077L221.518 452.305L220.962 442.931L228.734 448.187L237.473 444.771Z" fill="white" stroke="#263238" stroke-miterlimit="10"/>
<path d="M456.092 444.771L453.483 453.788L459.441 461.043L450.067 461.361L445.01 469.265L441.806 460.447L432.723 458.077L440.124 452.305L439.568 442.931L447.34 448.187L456.092 444.771Z" fill="white" stroke="#263238" stroke-miterlimit="10"/>
<path d="M131.301 164.48L129.487 170.809L133.658 175.893L127.078 176.105L123.543 181.653L121.292 175.47L114.937 173.801L120.127 169.763L119.729 163.196L125.184 166.89L131.301 164.48Z" fill="white" stroke="#263238" stroke-miterlimit="10"/>
<path d="M252.354 35.1786L246.661 38.4886L246.171 45.0557L241.273 40.6732L234.878 42.2223L237.526 36.1981L234.07 30.6108L240.624 31.2728L244.874 26.2549L246.264 32.6895L252.354 35.1786Z" fill="white" stroke="#263238" stroke-miterlimit="10"/>
<path d="M602.698 295.755L600.871 302.084L605.055 307.168L598.475 307.38L594.926 312.927L592.689 306.744L586.32 305.089L591.51 301.038L591.126 294.471L596.568 298.165L602.698 295.755Z" fill="white" stroke="#263238" stroke-miterlimit="10"/>
<path d="M393.969 62.9561L391.361 71.9726L397.319 79.2281L387.945 79.5459L382.888 87.4501L379.684 78.6323L370.601 76.2623L378.002 70.4897L377.446 61.1158L385.218 66.3721L393.969 62.9561Z" fill="white" stroke="#263238" stroke-miterlimit="10"/>
<path d="M338.229 414.033C414.72 414.033 476.729 352.024 476.729 275.533C476.729 199.042 414.72 137.033 338.229 137.033C261.738 137.033 199.729 199.042 199.729 275.533C199.729 352.024 261.738 414.033 338.229 414.033Z" fill="#92E3A9" stroke="#263238" stroke-miterlimit="10"/>
<path d="M310.411 403.675C317.837 405.294 325.392 406.254 332.988 406.545" stroke="#263238" stroke-miterlimit="10"/>
<path d="M293.439 398.756C297.193 400.118 301.009 401.325 304.878 402.344" stroke="#263238" stroke-miterlimit="10"/>
<path d="M212.115 239.655C203.3 270.698 206.237 303.901 220.366 332.914C234.494 361.927 258.822 384.713 288.696 396.915" stroke="#263238" stroke-miterlimit="10"/>
<path d="M229.742 201.936C225.006 208.924 220.949 216.348 217.627 224.108" stroke="#263238" stroke-miterlimit="10"/>
<path d="M319.458 214.02L333.58 216.943L338.395 221.934L344.666 222.902L346.663 228.85L345.197 232.885L340.922 234.84L330.44 233.135L330.159 231.845L335.109 228.392L331.688 222.08L322.318 220.79L317.326 216.516L319.458 214.02Z" fill="white" stroke="#263238" stroke-miterlimit="10"/>
<path d="M433.249 344.315L422.049 342.422L408.529 340.706L398.587 342.911L388.854 343.057L379.078 347.58L373.379 349.192L369.843 349.972L363.957 355.318L358.113 359.311L348.233 355.775L348.493 346.301L342.534 345.261L336.118 346.686L334.527 344.055L333.882 338.138L330.929 335.423L326.571 337.067L325.999 340.561L320.623 342.09L314.529 337.389L310.889 330.109L313.707 320.053L323.15 318.628L326.218 320.313L330.076 319.45L334.236 315.498L338.687 315.852L346.673 324.514L348.847 323.703L346.569 316.424L343.793 312.992L343.075 306.752L353.807 298.984L352.767 286.754L356.927 281.44L359.465 273.12L362.533 271.758L368.845 265.31L368.595 262.669L363.531 264.135L362.002 261.775L358.466 262.565L353.267 265.061L354.91 260.319L365.517 254.62L367.441 251.167L373.504 257.23L377.04 259.476L381.2 257.188L378.35 253.445L370.54 250.138L360.962 243.18L351.728 239.509L343.741 239.936L339.03 236.941L333.612 236.795L333.258 238.22L334.683 247.663L336.68 250.595L336.066 261.504L328.516 257.792V253.081L321.07 251.375L317.399 248.484L317.222 240.102L325.032 231.304L323.992 223.453L320.529 224.565L317.649 222.174L315.569 217.577L313.25 217.754L313.114 223.172L309.672 224.607L305.575 213.729L302.653 212.689L297.734 211.764L293.168 215.466L300.937 220.135L303.433 225.335L289.913 219.241L279.971 212.356L277.434 203.819L268.522 203.101L263.031 208.696C261.683 209.985 260.267 211.2 258.788 212.336C257.321 213.376 251.373 215.331 251.373 215.331L251.3 221.071L244.021 223.026L245.445 226.417L257.748 225.709L265.339 231.086L267.835 242.317L266.515 253.049L269.51 263.449L264.008 281.128L267.284 304.974L273.17 317.817L279.618 327.177L284.578 326.75L281.833 321.967L278.411 318.691L275.24 311.983L277.985 310.704L285.036 321.259L290.527 330.817L292.378 339.136L300.115 345.157L312.792 350.856L330.471 351.647L336.711 355.318L341.702 359.592L348.254 361.838L355.742 362.202L362.73 360.309C362.73 360.309 363.125 363.585 363.479 365.197C363.832 366.809 360.557 373.257 360.557 373.257L358.477 380.453L362.637 386.942L370.343 388.263L382.468 396.323L387.387 397.248L388.427 402.063L389.467 404.143C413.556 394.594 434.47 378.455 449.815 357.574L449.472 355.214L454.672 337.535L449.857 335.569L433.249 344.315Z" fill="white" stroke="#263238" stroke-miterlimit="10"/>
<path d="M438.469 210.152L433.592 204.838L427.529 198.775L424.108 189.415L430.098 189.093L429.703 185.817L425.46 186.42L428.631 184.028L431.99 180.909L431.273 177.695L426.281 173.421L423.931 166.693C400.209 148.02 371.04 137.604 340.857 137.025C310.674 136.447 281.127 145.739 256.708 163.489L265.277 167.088L262.063 173.858L256.25 176.499L257.54 185.308L255.179 186.836L252.756 191.079L254.357 196.789L259.963 196.217L258.923 202.165L264.383 200.959L271.049 187.023L270.872 181.678L279.711 179.047L281.105 174.69L290.194 171.663L289.944 165.996L296.61 164.176C296.61 164.176 300.853 160.536 301.81 160.328C303.755 160.316 305.698 160.448 307.623 160.723L313.291 163.5L320.072 162.065L325.063 157.26L332.582 156.22C333.796 156.688 335.105 156.859 336.399 156.719C338 156.355 342.316 153.048 342.316 153.048L352.903 156.751L357.395 158.831L358.435 163.645L363.396 163.219L364.352 159.974L368.959 161.014L369.209 163.645L360.151 168.304L367.171 174.149L380.149 178.007L386.389 183.352L393.585 182.427L394.48 178.86L396.903 177.654L387.138 173.088L381.865 173.587L385.744 171.372L380.68 166.776L386.066 165.237L393.98 167.524L397.298 174.866L401.749 178.257L406.709 186.919L414.904 190.486L417.265 201.073L425.709 204.255L426.146 207.822V212.211L429.359 217.556L430.638 220.302L436.306 220.052L437.658 214.031L438.469 210.152Z" fill="white" stroke="#263238" stroke-miterlimit="10"/>
<path d="M435.505 176.894L435.911 178.735L435.453 184.226L437.408 188.511L441.225 189.01L442.577 195.104L438.417 194.355L441.298 211.899L439.02 219.813L443.575 228.226L448.609 231.148L452.456 248.484L459.622 261.026L466.392 270.302L474.202 270.583L475.346 263.595L476.209 262.555C475.66 256.827 474.76 251.138 473.515 245.52C467.758 219.447 454.554 195.606 435.505 176.894Z" fill="white" stroke="#263238" stroke-miterlimit="10"/>
<path d="M360.889 191.35L337.647 186.743L328.412 189.135L327.518 195.728L322.744 192.41L316.047 195.582L317.753 206.314L324.45 209.205L327.268 202.186L333.154 205.93L345.03 212.377L349.013 221.258L359.714 229.994L372.693 224.753L371.299 220.021L367.202 215.206L363.708 202.508L365.704 196.341L360.889 191.35Z" fill="white" stroke="#263238" stroke-miterlimit="10"/>
<path d="M379.785 194.563L374.689 194.345L371.299 198.806L375.615 207.604L379.785 206.678V194.563Z" fill="white" stroke="#263238" stroke-miterlimit="10"/>
<path d="M410.984 194.033L398.795 190.674L395.686 187.325L393.336 188.864L397.007 194.781L400.792 202.695L406.033 203.548L406.709 202.051L402.747 197.88L411.805 199.232L410.984 194.033Z" fill="white" stroke="#263238" stroke-miterlimit="10"/>
<path d="M343.013 330.681L342.014 332.252L352.279 333L357.125 336.64L363.364 335.923L364.831 331.898L357.166 332.252L343.013 330.681Z" fill="white" stroke="#263238" stroke-miterlimit="10"/>
<path d="M372.922 330.432L366.609 333.853L368.148 336.214L376.489 334.352L377.529 331.43L374.71 332.397L372.922 330.432Z" fill="white" stroke="#263238" stroke-miterlimit="10"/>
<path d="M549.46 102.636L473.29 82.4058L491.522 105.92L549.46 102.636Z" fill="white" stroke="#263238" stroke-linecap="round" stroke-linejoin="round"/>
<path d="M491.522 105.92L490.952 121.742L549.46 102.636L491.522 105.92Z" fill="white" stroke="#263238" stroke-linecap="round" stroke-linejoin="round"/>
<path d="M498.42 113.824L490.952 121.742L549.46 102.636L498.42 113.824Z" fill="white" stroke="#263238" stroke-linecap="round" stroke-linejoin="round"/>
<path d="M549.46 102.636L498.42 113.824L511.726 137.008L549.46 102.636Z" fill="white" stroke="#263238" stroke-linecap="round" stroke-linejoin="round"/>
<path d="M478.983 118.114L477.024 118.379" stroke="#263238" stroke-linecap="round" stroke-linejoin="round"/>
<path d="M473.105 118.935C429.651 125.131 158.125 166.241 101.418 233.024C51.0004 292.405 134.783 309.035 154.378 312.04" stroke="#263238" stroke-linecap="round" stroke-linejoin="round" stroke-dasharray="2.99 2.99"/>
<path d="M156.232 312.318C157.49 312.504 158.191 312.57 158.191 312.57" stroke="#263238" stroke-linecap="round" stroke-linejoin="round"/>
<path d="M183.427 100.823C183.427 98.52 182.887 96.2496 181.852 94.1929C180.817 92.1362 179.314 90.3505 177.465 88.9787C175.616 87.6069 173.471 86.6871 171.203 86.2929C168.934 85.8987 166.605 86.0411 164.401 86.7087C162.917 82.5022 160.166 78.8585 156.527 76.2783C152.889 73.6982 148.54 72.3083 144.079 72.2996C139.618 72.2909 135.264 73.6638 131.616 76.2297C127.967 78.7956 125.202 82.4285 123.701 86.6293C122.41 86.2601 121.073 86.073 119.729 86.0732C116.123 86.1271 112.661 87.5009 109.998 89.9346C107.336 92.3683 105.658 95.6933 105.281 99.2807C104.904 102.868 105.855 106.469 107.954 109.403C110.053 112.336 113.154 114.399 116.671 115.201L172.12 115.188C175.345 114.414 178.216 112.575 180.267 109.968C182.319 107.362 183.432 104.14 183.427 100.823Z" fill="white" stroke="#263238" stroke-miterlimit="10"/>
<path d="M196.627 108.144C196.629 107.011 196.365 105.893 195.856 104.88C195.347 103.868 194.608 102.989 193.697 102.314C192.787 101.639 191.731 101.187 190.614 100.995C189.497 100.803 188.35 100.875 187.267 101.207C186.549 99.1207 185.198 97.3108 183.403 96.0296C181.607 94.7484 179.456 94.0597 177.25 94.0597C175.045 94.0597 172.894 94.7484 171.098 96.0296C169.303 97.3108 167.952 99.1207 167.234 101.207C166.297 100.942 165.315 100.868 164.348 100.991C163.381 101.114 162.449 101.43 161.607 101.921C160.766 102.412 160.031 103.068 159.448 103.849C158.865 104.63 158.446 105.52 158.214 106.467C157.983 107.413 157.945 108.397 158.102 109.359C158.259 110.321 158.608 111.241 159.129 112.065C159.649 112.888 160.331 113.599 161.132 114.154C161.933 114.709 162.838 115.096 163.792 115.294H191.066C192.667 114.91 194.089 113.993 195.099 112.693C196.11 111.394 196.649 109.79 196.627 108.144Z" fill="white" stroke="#263238" stroke-miterlimit="10"/>
<path d="M586.664 185.002C586.664 182.7 586.125 180.429 585.089 178.373C584.054 176.316 582.552 174.53 580.702 173.159C578.853 171.787 576.708 170.867 574.44 170.473C572.171 170.079 569.842 170.221 567.638 170.889C566.147 166.692 563.395 163.059 559.759 160.486C556.123 157.914 551.782 156.528 547.328 156.518C542.874 156.507 538.526 157.874 534.879 160.43C531.231 162.986 528.463 166.606 526.952 170.796C525.66 170.426 524.323 170.239 522.98 170.24C519.373 170.294 515.911 171.668 513.249 174.101C510.587 176.535 508.908 179.86 508.532 183.447C508.155 187.035 509.106 190.636 511.205 193.57C513.304 196.503 516.405 198.566 519.922 199.368L575.371 199.262C578.576 198.49 581.43 196.665 583.477 194.081C585.525 191.496 586.647 188.3 586.664 185.002Z" fill="white" stroke="#263238" stroke-miterlimit="10"/>
<path d="M599.865 192.337C599.865 190.413 599.1 188.568 597.74 187.207C596.379 185.846 594.533 185.082 592.609 185.082C591.898 185.072 591.189 185.166 590.504 185.36C589.786 183.274 588.436 181.464 586.64 180.183C584.845 178.902 582.694 178.213 580.488 178.213C578.282 178.213 576.131 178.902 574.336 180.183C572.54 181.464 571.189 183.274 570.472 185.36C569.843 185.184 569.192 185.095 568.539 185.095C566.746 185.095 565.017 185.759 563.685 186.959C562.352 188.159 561.511 189.809 561.324 191.592C561.136 193.375 561.615 195.164 562.669 196.615C563.723 198.065 565.276 199.074 567.029 199.447H594.317C595.908 199.062 597.322 198.15 598.33 196.859C599.337 195.568 599.878 193.975 599.865 192.337Z" fill="white" stroke="#263238" stroke-miterlimit="10"/>
<path d="M163.117 315.019C163.121 312.716 162.585 310.444 161.552 308.386C160.519 306.327 159.018 304.539 157.17 303.166C155.321 301.792 153.176 300.871 150.907 300.476C148.638 300.081 146.308 300.224 144.104 300.892C142.617 296.687 139.864 293.045 136.224 290.467C132.585 287.888 128.236 286.499 123.776 286.491C119.315 286.482 114.961 287.854 111.312 290.418C107.662 292.983 104.895 296.613 103.391 300.813C102.098 300.45 100.762 300.263 99.4191 300.257C95.8124 300.311 92.3505 301.684 89.6881 304.118C87.0257 306.552 85.3475 309.877 84.9708 313.464C84.5941 317.052 85.5451 320.653 87.6439 323.586C89.7427 326.52 92.8438 328.583 96.3607 329.385L151.81 329.279C155.021 328.515 157.882 326.694 159.933 324.107C161.984 321.521 163.105 318.32 163.117 315.019Z" fill="white" stroke="#263238" stroke-miterlimit="10"/>
<path d="M176.317 322.341C176.317 320.417 175.553 318.571 174.192 317.211C172.831 315.85 170.986 315.085 169.061 315.085C168.349 315.085 167.64 315.188 166.956 315.39C166.236 313.309 164.885 311.504 163.091 310.226C161.297 308.949 159.149 308.262 156.947 308.262C154.744 308.262 152.597 308.949 150.803 310.226C149.009 311.504 147.658 313.309 146.937 315.39C146.002 315.132 145.024 315.064 144.062 315.19C143.1 315.316 142.173 315.634 141.336 316.125C140.499 316.616 139.769 317.27 139.189 318.048C138.609 318.826 138.191 319.713 137.96 320.655C137.729 321.598 137.689 322.577 137.843 323.535C137.997 324.493 138.341 325.411 138.856 326.233C139.371 327.056 140.046 327.767 140.84 328.324C141.635 328.881 142.533 329.273 143.482 329.477H170.769C172.365 329.091 173.783 328.175 174.79 326.879C175.798 325.582 176.336 323.983 176.317 322.341Z" fill="white" stroke="#263238" stroke-miterlimit="10"/>
</svg>
